<svg version="1.1" xmlns="http://www.w3.org/2000/svg" viewBox="879 1094 1079 226" xml:space="preserve">
<rect x="879" y="1094" width="1079" height="226" fill="#0D1421"/>
<path fill="#FFFFFF" opacity="1.000000" stroke="none" 
	d="
M1548.237793,1184.982178 
	C1548.936768,1168.206787 1543.118774,1159.915527 1528.042480,1159.223755 
	C1506.827148,1158.250244 1485.533813,1158.977661 1463.645508,1158.977661 
	C1463.333862,1161.555664 1462.844360,1163.733887 1462.840942,1165.912842 
	C1462.790283,1198.221558 1462.813477,1230.530396 1462.786865,1262.839111 
	C1462.784424,1265.829956 1462.869751,1268.871704 1462.383667,1271.801758 
	C1460.926025,1280.588379 1455.573242,1285.295898 1447.674194,1285.100098 
	C1439.415405,1284.895386 1433.417358,1279.493408 1432.294312,1271.045898 
	C1431.988892,1268.750000 1432.127686,1266.390137 1432.127075,1264.059570 
	C1432.117432,1230.085083 1432.070068,1196.110474 1432.179321,1162.136353 
	C1432.193115,1157.848145 1432.679443,1153.484497 1433.577515,1149.290894 
	C1435.921631,1138.345337 1443.458984,1131.742554 1454.637695,1131.629517 
	C1479.282837,1131.380005 1503.945801,1131.159790 1528.573242,1131.883789 
	C1536.324585,1132.111572 1544.520996,1134.224121 1551.591675,1137.477783 
	C1575.409546,1148.437866 1585.531738,1175.494873 1575.552002,1199.705811 
	C1571.321289,1209.969849 1563.780518,1217.289673 1553.984131,1222.328857 
	C1551.077148,1223.824097 1548.063843,1225.112671 1544.097534,1226.963257 
	C1551.628418,1235.342407 1558.701172,1243.175659 1565.729614,1251.048584 
	C1568.830688,1254.522217 1572.194214,1257.833496 1574.818970,1261.645142 
	C1580.068237,1269.268555 1579.255493,1277.511353 1573.269165,1282.319824 
	C1566.904663,1287.432007 1558.221069,1286.332764 1551.962769,1279.207153 
	C1540.099487,1265.700073 1528.115112,1252.276489 1516.848633,1238.280884 
	C1512.859497,1233.325439 1508.749146,1230.932129 1502.630493,1231.096802 
	C1498.991577,1231.194702 1495.290161,1231.135864 1491.704224,1230.581665 
	C1483.867432,1229.370728 1479.447876,1224.207275 1479.775269,1217.188965 
	C1480.157104,1208.997681 1485.453125,1203.474854 1493.713745,1203.347046 
	C1504.033203,1203.187256 1514.375854,1203.872070 1524.678711,1203.454956 
	C1537.882080,1202.920532 1544.062866,1197.907837 1548.237793,1184.982178 
z"/>
<path fill="#FFFFFF" opacity="1.000000" stroke="none" 
	d="
M1341.810791,1190.659668 
	C1338.984863,1184.164795 1336.489990,1178.358887 1333.735107,1172.679321 
	C1332.438354,1170.005493 1330.851562,1167.412354 1329.036133,1165.060425 
	C1320.210693,1153.626709 1308.754395,1153.475830 1301.775269,1165.977905 
	C1294.853394,1178.377319 1289.229492,1191.642090 1284.346436,1205.005859 
	C1277.053467,1224.965454 1270.947510,1245.357300 1264.242798,1265.534180 
	C1262.885132,1269.619629 1261.479736,1273.765503 1259.449097,1277.535034 
	C1255.533936,1284.803833 1248.403564,1287.230957 1240.832153,1284.394653 
	C1234.378906,1281.977417 1230.707642,1274.796875 1232.162476,1267.247559 
	C1232.475098,1265.625732 1233.081787,1264.052490 1233.636841,1262.486572 
	C1244.504761,1231.822754 1255.072632,1201.046875 1266.427368,1170.564087 
	C1270.588501,1159.393311 1276.629639,1149.095703 1285.441528,1140.434326 
	C1302.373047,1123.791748 1337.175171,1125.898071 1351.948730,1146.940552 
	C1357.633911,1155.038330 1362.479614,1163.958618 1366.277100,1173.098511 
	C1373.407837,1190.260864 1379.642944,1207.803101 1385.970215,1225.288696 
	C1390.376831,1237.465942 1394.346802,1249.802002 1398.454102,1262.086304 
	C1402.084351,1272.943970 1398.997070,1281.772705 1390.662720,1284.616943 
	C1381.803345,1287.640381 1373.829956,1283.378296 1369.756714,1272.804199 
	C1366.180054,1263.518799 1363.197510,1254.004395 1359.757324,1244.024414 
	C1344.882324,1244.024414 1330.262817,1244.031494 1315.643311,1244.019043 
	C1312.314819,1244.016235 1308.960571,1244.195557 1305.662720,1243.857056 
	C1297.448242,1243.014282 1292.608398,1237.862427 1292.535889,1230.240601 
	C1292.467896,1223.065674 1297.845459,1217.426147 1305.984985,1217.036743 
	C1314.289185,1216.639526 1322.626465,1216.932495 1330.949341,1216.927734 
	C1337.237183,1216.924072 1343.525024,1216.927002 1350.810303,1216.927002 
	C1349.160522,1207.484863 1344.807495,1199.687866 1341.810791,1190.659668 
z"/>
<path fill="#FFFFFF" opacity="1.000000" stroke="none" 
	d="
M1927.375000,1276.360107 
	C1923.667114,1284.242065 1917.610962,1286.005737 1910.426636,1285.184692 
	C1903.414673,1284.383423 1900.426392,1279.374146 1898.501953,1273.327637 
	C1895.483398,1263.843628 1892.405151,1254.378540 1889.056763,1243.988525 
	C1880.920898,1243.988525 1872.658081,1243.997681 1864.395264,1243.986084 
	C1854.406006,1243.972046 1844.399292,1244.303345 1834.432251,1243.821167 
	C1822.987061,1243.267456 1817.605713,1234.867554 1821.643066,1224.525391 
	C1824.058228,1218.338867 1829.428711,1217.004883 1835.310181,1216.954102 
	C1846.297729,1216.859375 1857.286255,1216.865601 1868.274292,1216.834961 
	C1871.508301,1216.825928 1874.742188,1216.833740 1878.864014,1216.833740 
	C1877.804077,1213.091675 1877.315308,1210.512085 1876.355225,1208.121948 
	C1871.651245,1196.410278 1866.840088,1184.741333 1862.018066,1173.077515 
	C1861.258789,1171.240723 1860.382080,1169.425049 1859.335938,1167.738281 
	C1850.287720,1153.150146 1836.130615,1152.715454 1828.427979,1167.961060 
	C1820.520874,1183.611694 1814.286377,1200.171265 1808.190063,1216.654907 
	C1802.315552,1232.538330 1797.640015,1248.862183 1792.247681,1264.928589 
	C1790.670532,1269.628052 1788.873535,1274.356567 1786.414062,1278.632812 
	C1782.765381,1284.976440 1776.870239,1286.999756 1770.245850,1285.046143 
	C1763.780151,1283.139282 1759.398193,1276.869141 1759.979492,1269.796631 
	C1760.221191,1266.855103 1760.925171,1263.872925 1761.911743,1261.083496 
	C1771.876099,1232.908813 1781.556030,1204.623047 1792.184448,1176.699097 
	C1796.047974,1166.548706 1801.786743,1157.008423 1807.463013,1147.671997 
	C1821.841553,1124.021729 1860.985229,1124.032349 1876.196533,1143.174316 
	C1882.955933,1151.680420 1889.680420,1160.902832 1893.519165,1170.912720 
	C1905.293945,1201.616211 1915.751343,1232.828247 1926.463379,1263.931274 
	C1927.707886,1267.544922 1927.338867,1271.714478 1927.375000,1276.360107 
z"/>
<path fill="#FFFFFF" opacity="1.000000" stroke="none" 
	d="
M985.834045,1156.315918 
	C970.324585,1156.119385 956.545715,1158.029785 944.442322,1167.462036 
	C913.527893,1191.553955 923.206238,1237.983887 949.674255,1251.480713 
	C973.039062,1263.395142 996.272095,1263.303467 1019.076355,1249.756836 
	C1020.788757,1248.739624 1022.318726,1247.417114 1024.022583,1246.383545 
	C1031.451660,1241.876953 1038.538452,1243.265259 1043.174316,1250.074951 
	C1047.632324,1256.623535 1046.567139,1264.533813 1039.848877,1269.500244 
	C1029.859863,1276.884399 1018.803589,1282.197876 1006.534302,1284.747070 
	C981.271973,1289.995605 957.309082,1287.498413 933.878357,1275.625854 
	C895.860657,1256.362183 888.359314,1210.479858 898.719421,1182.159180 
	C908.980713,1154.108521 929.144226,1137.407837 957.951660,1131.374023 
	C980.908691,1126.565552 1003.721741,1127.588989 1025.400269,1137.560791 
	C1030.750366,1140.021851 1035.825806,1143.495483 1040.297852,1147.350220 
	C1046.660645,1152.834961 1047.121948,1159.947510 1042.468262,1165.977905 
	C1037.787598,1172.043091 1029.427368,1173.837646 1022.915161,1169.301514 
	C1011.972961,1161.679321 1000.098450,1157.142090 985.834045,1156.315918 
z"/>
<path fill="#FFFFFF" opacity="1.000000" stroke="none" 
	d="
M1725.898193,1189.995483 
	C1716.249268,1201.464844 1706.862793,1212.230103 1697.901978,1223.338745 
	C1696.039917,1225.647095 1694.988403,1229.201294 1694.882935,1232.227295 
	C1694.523804,1242.529785 1694.764893,1252.852783 1694.753174,1263.167969 
	C1694.750122,1265.828003 1694.897583,1268.518311 1694.565552,1271.142822 
	C1693.381714,1280.501587 1687.219482,1285.914062 1678.551147,1285.429321 
	C1670.608521,1284.985229 1665.004883,1278.986084 1664.436401,1270.186279 
	C1664.286499,1267.867554 1664.440796,1265.529297 1664.445068,1263.200073 
	C1664.464233,1252.884888 1664.284912,1242.564087 1664.583740,1232.257080 
	C1664.720703,1227.528809 1663.246582,1224.341187 1659.545044,1221.244507 
	C1654.990845,1217.434570 1650.967041,1212.865356 1647.258667,1208.192017 
	C1634.235229,1191.779297 1621.258789,1175.320923 1608.702026,1158.552124 
	C1605.658203,1154.487549 1602.923462,1149.278320 1602.527222,1144.394165 
	C1602.109009,1139.237183 1605.125977,1134.168213 1610.746948,1131.856079 
	C1616.536377,1129.474854 1622.147827,1130.042358 1626.491943,1134.436157 
	C1631.140747,1139.137939 1635.140625,1144.501709 1639.246704,1149.716064 
	C1651.381104,1165.125854 1663.411011,1180.617920 1675.540894,1196.031494 
	C1676.533081,1197.292236 1677.972778,1198.200806 1680.081177,1200.036133 
	C1682.821777,1197.136719 1685.707764,1194.547607 1688.045288,1191.533203 
	C1700.681763,1175.238037 1713.137695,1158.802979 1725.769653,1142.504150 
	C1728.193848,1139.376099 1730.801758,1136.225342 1733.894775,1133.817017 
	C1739.295044,1129.612549 1746.499146,1129.931396 1751.462036,1133.928101 
	C1756.104126,1137.666504 1757.984619,1144.172119 1755.308716,1150.207642 
	C1753.445557,1154.409912 1750.781494,1158.349243 1747.973267,1162.022217 
	C1740.904297,1171.268433 1733.551025,1180.297241 1725.898193,1189.995483 
z"/>
<path fill="#FFFFFF" opacity="1.000000" stroke="none" 
	d="
M1169.983643,1256.890625 
	C1178.642212,1256.878540 1186.309814,1257.024048 1193.966309,1256.798828 
	C1200.462891,1256.607544 1205.077393,1259.542358 1207.397217,1265.230713 
	C1209.531738,1270.465088 1208.409668,1275.663818 1204.760010,1280.235352 
	C1202.253662,1283.374756 1199.148560,1284.552368 1195.185303,1284.519287 
	C1174.530029,1284.346924 1153.739136,1285.774292 1133.248901,1283.888916 
	C1101.366699,1280.954834 1081.927246,1264.059814 1080.066406,1228.925049 
	C1078.623535,1201.680542 1079.670898,1174.300049 1079.754517,1146.980591 
	C1079.785278,1136.928467 1085.689941,1130.478394 1094.450073,1130.360352 
	C1102.959351,1130.245728 1109.708862,1136.933472 1109.874023,1146.568970 
	C1110.170654,1163.889160 1110.005249,1181.217163 1110.030640,1198.541992 
	C1110.045410,1208.537109 1109.878906,1218.536255 1110.106567,1228.526489 
	C1110.515747,1246.475830 1120.074219,1256.203247 1138.004883,1256.767944 
	C1148.323608,1257.093018 1158.659546,1256.865967 1169.983643,1256.890625 
z"/>
</svg>